<?xml version="1.0" encoding="UTF-8"?>
<svg id="Layer_1" xmlns="http://www.w3.org/2000/svg" version="1.1" viewBox="0 0 274 64">
  <!-- Generator: Adobe Illustrator 30.2.1, SVG Export Plug-In . SVG Version: 2.1.1 Build 1)  -->
  <defs>
    <style>
      .st0 {
        isolation: isolate;
      }
    </style>
  </defs>
  <g id="Logo_V1">
    <g id="inkfield">
      <g id="inkfield." class="st0">
        <g class="st0">
          <path d="M6.7,10.6c.7,0,1.2.2,1.7.7.5.5.7,1,.7,1.6s-.2,1.2-.7,1.7-1,.7-1.7.7-1.2-.2-1.7-.7c-.5-.5-.7-1-.7-1.7s.2-1.2.7-1.6c.4-.5,1-.7,1.7-.7ZM7.9,21.7v26.3h-2.6v-26.3h2.6Z"/>
          <path d="M31.7,21.7v4.1h.1c.8-1.5,1.8-2.6,3.2-3.4,1.4-.8,2.9-1.2,4.6-1.2s3.9.4,5.2,1.3c1.3.9,2.2,2.1,2.7,3.7s.8,3.6.8,6v15.9h-2.6v-15.9c0-1.8-.1-3.4-.4-4.6s-.9-2.2-1.8-2.9c-.9-.7-2.3-1.1-4.1-1.1s-3.6.5-4.8,1.6c-1.1,1.1-1.9,2.5-2.3,4.2-.4,1.7-.6,3.6-.6,5.7v13h-2.6v-26.3h2.6Z"/>
          <path d="M71,1v31.9l10.8-11.2h3.3l-11.1,11.4,14.8,14.9h-3.4l-13.1-13.2-1.4,1.5v11.7h-2.6V1h2.6Z"/>
          <path d="M106.8,24.1v23.9h-2.6v-23.9h-2.9v-2.4h2.9v-11.8c0-3.1.3-5.2,1-6.4.6-1,1.4-1.8,2.4-2.4s2.2-.8,3.4-.8,1.6.1,2.3.4v2.3c-.3,0-.6-.1-.8-.2-.2,0-.4,0-.7-.1s-.5,0-.6,0c-1.9,0-3.2.7-3.7,2.1-.5,1.4-.8,3.3-.8,5.6v11.3h6.6v2.4h-6.6Z"/>
          <path d="M131.5,10.6c.7,0,1.2.2,1.7.7.5.5.7,1,.7,1.6s-.2,1.2-.7,1.7-1,.7-1.7.7-1.2-.2-1.7-.7c-.5-.5-.7-1-.7-1.7s.2-1.2.7-1.6c.4-.5,1-.7,1.7-.7ZM132.8,21.7v26.3h-2.6v-26.3h2.6Z"/>
          <path d="M176.9,35.1h-22.9c0,2.2.5,4.2,1.4,5.9.9,1.7,2.2,3,3.8,3.9,1.6.9,3.4,1.4,5.4,1.4s3.8-.5,5.4-1.6c1.6-1.1,2.9-2.5,3.9-4.3l2.2,1.3c-1.2,2.3-2.8,4-4.8,5.3-2,1.2-4.3,1.9-6.9,1.9s-4.8-.6-6.7-1.9c-1.9-1.2-3.4-2.9-4.5-5-1.1-2.1-1.6-4.4-1.6-6.9s.5-4.7,1.6-6.8c1.1-2.1,2.6-3.8,4.5-5s4.2-1.9,6.7-1.9,4.8.6,6.7,1.9c1.9,1.3,3.4,2.9,4.4,5.1,1,2.1,1.5,4.5,1.5,7ZM154,32.7h20.3c-.2-1.6-.8-3.1-1.7-4.5-.9-1.4-2.1-2.5-3.6-3.4-1.5-.8-3-1.3-4.8-1.3s-3.4.4-4.9,1.2c-1.5.8-2.8,2-3.7,3.4-1,1.4-1.5,2.9-1.7,4.6Z"/>
          <path d="M197,1v47h-2.6V1h2.6Z"/>
          <path d="M237.8,48v-4.7h-.1c-.9,1.6-2.3,2.9-4.2,3.9-1.9,1-3.8,1.4-5.8,1.4s-4.9-.6-6.8-1.8c-2-1.2-3.5-2.9-4.6-5-1.1-2.1-1.6-4.5-1.6-7s.3-3.7.9-5.4c.6-1.7,1.5-3.1,2.6-4.3s2.5-2.2,4.1-2.8,3.4-1,5.3-1,4,.4,5.8,1.3,3.3,2.2,4.4,3.8h.1V1h2.6v47h-2.6ZM227.6,46.2c2.2,0,4-.5,5.6-1.6,1.6-1.1,2.8-2.5,3.6-4.3s1.2-3.8,1.2-5.9-.2-2.9-.7-4.3-1.2-2.5-2.1-3.5c-.9-1-2-1.8-3.3-2.3-1.3-.6-2.7-.8-4.3-.8s-2.9.3-4.1.9c-1.2.6-2.3,1.4-3.2,2.5s-1.6,2.3-2.1,3.6-.8,2.7-.8,4.1c0,2,.4,3.9,1.3,5.7.9,1.8,2.1,3.2,3.6,4.2,1.6,1.1,3.4,1.6,5.4,1.6Z"/>
          <path d="M265,43.9c.7,0,1.2.2,1.7.7s.7,1,.7,1.7-.2,1.2-.7,1.7c-.5.4-1,.7-1.7.7s-1.2-.2-1.7-.7-.7-1-.7-1.7.2-1.2.7-1.7c.4-.5,1-.7,1.7-.7Z"/>
        </g>
      </g>
    </g>
  </g>
</svg>